<svg id="レイヤー_1" data-name="レイヤー 1" xmlns="http://www.w3.org/2000/svg" viewBox="0 0 719.7 274"><defs><style>.cls-1{fill:#ffeab9;}.cls-2,.cls-3{font-size:100px;font-family:Arial-Black, Arial Black;font-weight:800;}.cls-2{fill:#fc9;}.cls-3{fill:#ffeaa2;}</style></defs><title>logo</title><circle class="cls-1" cx="137" cy="137" r="137"/><text class="cls-2" transform="translate(296.51 188.05) scale(0.78 1.42)">ABC Shop</text><path d="M298.9,305.56a41.8,41.8,0,0,1,35.11,1,41.25,41.25,0,0,1,21,26.42c2.9,11.08,1.6,26.45-9.62,32.51A13.68,13.68,0,0,1,329.76,364a18.24,18.24,0,0,1-6.22-14.32c.19-7.1,3.95-13.74,8.77-18.77,5.27-5.49,11.81-9.47,18.29-13.36a1.5,1.5,0,0,0-1.52-2.59c-11.86,7.13-25.2,15.82-28.05,30.47a22,22,0,0,0,4,17.89,17,17,0,0,0,15.86,6.77c6.65-1,12.18-5.78,15.12-11.67a35.89,35.89,0,0,0,3.09-19.92A43.78,43.78,0,0,0,302,301.21a46.21,46.21,0,0,0-4.59,1.76c-1.76.78-.24,3.37,1.51,2.59Z" transform="translate(-265 -192)"/><path d="M443.37,300.93c19.59.59,38.22,17.55,39.21,37.44.43,8.6-3.14,19.94-12.91,21.51-4.63.74-9.46-1.22-12.78-4.4a17.12,17.12,0,0,1-4.9-13.85c1-13.29,13.32-21.28,25.38-23.44,1.89-.34,1.09-3.24-.8-2.9-12,2.17-23.86,9.65-26.92,22.16-1.36,5.56-.86,11.79,2.28,16.69A19.47,19.47,0,0,0,465,362.79a16.1,16.1,0,0,0,14-4.59c3.7-3.74,5.63-8.93,6.31-14.07,1.44-10.84-2.88-21.81-9.76-30.06-7.93-9.51-19.76-15.77-32.2-16.14-1.93-.06-1.93,2.94,0,3Z" transform="translate(-265 -192)"/><path d="M394.41,376c-1.79-5.57,1.56-11.81,6.75-14.2,5.48-2.53,11.3.71,13.9,5.74a11.13,11.13,0,0,1,.61,9.15c-.69,1.8,2.21,2.58,2.89.79,2.56-6.62-1-14.53-7.06-17.9-6.66-3.72-14.51-.65-18.35,5.58a14.15,14.15,0,0,0-1.63,11.64c.58,1.83,3.48,1.05,2.89-.8Z" transform="translate(-265 -192)"/><path d="M365,408.09a79.43,79.43,0,0,0,53.6,13,77.54,77.54,0,0,0,13.76-2.88c4.35-1.35,8.88-3,12.41-5.92a12.09,12.09,0,0,0,4.54-10.77,8.08,8.08,0,0,0-7.45-7.32c-4.26-.25-8.5,2.85-10.26,6.6-2.52,5.38-1.09,11.59.29,17.07.46,1.87,3.36,1.07,2.89-.8-1.11-4.4-2.33-9.19-1-13.68a8.75,8.75,0,0,1,7.15-6.18c3.48-.31,5.53,2.71,5.46,5.92-.08,3.87-2.84,6.72-6,8.58A46.3,46.3,0,0,1,429.09,416a73.73,73.73,0,0,1-12.25,2.23,77.64,77.64,0,0,1-24.6-1.59,75.14,75.14,0,0,1-25.69-11.16c-1.6-1.09-3.1,1.51-1.51,2.59Z" transform="translate(-265 -192)"/><path d="M439.43,240.55c-1.26,14.12,5.12,28.56,16,37.59,11.12,9.23,26.24,11.81,40,7.65a43.42,43.42,0,0,0,19.9-12.54c1.27-1.44-.84-3.57-2.13-2.12-8.87,10-22.61,14.85-35.82,13.35-13.37-1.52-24.72-10.31-30.7-22.2a40.57,40.57,0,0,1-4.23-21.73c.18-1.93-2.83-1.92-3,0Z" transform="translate(-265 -192)"/><path d="M389,241.44a37.49,37.49,0,0,0,12.91,34.83c10.11,8.41,24.16,10.05,36.25,5.09a36.23,36.23,0,0,0,16.66-13.43c1.06-1.62-1.53-3.12-2.59-1.52-6.52,9.86-18.53,15.34-30.21,14.73-12.19-.63-22.48-8.58-27.51-19.49a32.92,32.92,0,0,1-2.62-19.41c.35-1.89-2.54-2.7-2.89-.8Z" transform="translate(-265 -192)"/><path d="M343.47,244.61c-1.51,12,4.09,24.29,13.56,31.61s22.45,8.54,33.5,3.94a34.28,34.28,0,0,0,15.37-12.43c1.08-1.61-1.52-3.11-2.59-1.51-6.08,9-17.13,14.14-27.93,13.69-11.13-.47-20.73-7.45-25.71-17.26a31.3,31.3,0,0,1-3.2-18c.25-1.91-2.76-1.89-3,0Z" transform="translate(-265 -192)"/><path d="M295.49,248.21A39.12,39.12,0,0,0,314.7,271.1a37.92,37.92,0,0,0,30.72,1.7,38.71,38.71,0,0,0,14.84-9.89c1.3-1.42-.81-3.55-2.12-2.12a36.24,36.24,0,0,1-26.27,11.5,35.62,35.62,0,0,1-33.49-24.88c-.57-1.84-3.47-1-2.89.8Z" transform="translate(-265 -192)"/><text class="cls-3" transform="translate(299.27 183.92) scale(0.78 1.42)">ABC Shop</text></svg>