<?xml version="1.0" encoding="utf-8"?>
<!-- Generator: Adobe Illustrator 23.0.6, SVG Export Plug-In . SVG Version: 6.00 Build 0)  -->
<svg version="1.1" id="レイヤー_1" xmlns="http://www.w3.org/2000/svg" xmlns:xlink="http://www.w3.org/1999/xlink" x="0px"
	 y="0px" viewBox="0 0 719.7 274" style="enable-background:new 0 0 719.7 274;" xml:space="preserve">
<style type="text/css">
	.st0{fill:#FFEAB9;}
	.st1{fill:#FFCC99;}
	.st2{font-family:'Arial-BoldMT';}
	.st3{font-size:34.4171px;}
	.st4{fill:#FFEAA2;}
</style>
<title>logo</title>
<g>
	<circle class="st0" cx="301.2" cy="151.8" r="33.2"/>
	<text transform="matrix(0.5493 0 0 1 339.8662 164.168)" class="st1 st2 st3">ABC Shop</text>
	<path d="M276.2,146.1c2.7-1.2,5.8-1.1,8.5,0.2c2.5,1.3,4.4,3.6,5.1,6.4c0.7,2.7,0.4,6.4-2.3,7.9c-1.2,0.7-2.7,0.5-3.8-0.4
		c-1-0.9-1.6-2.1-1.5-3.5c0-1.7,1-3.3,2.1-4.5c1.3-1.3,2.9-2.3,4.4-3.2c0.2-0.1,0.2-0.3,0.1-0.5c-0.1-0.2-0.3-0.2-0.5-0.1
		c-2.9,1.7-6.1,3.8-6.8,7.4c-0.3,1.5,0,3.1,1,4.3c0.9,1.2,2.4,1.8,3.8,1.6c1.6-0.2,3-1.4,3.7-2.8c0.7-1.5,1-3.2,0.7-4.8
		c-0.6-5.8-5.8-10.1-11.6-9.5c-0.8,0.1-1.5,0.2-2.2,0.5c-0.4,0.1-0.7,0.3-1.1,0.4C275.4,145.7,275.8,146.3,276.2,146.1L276.2,146.1z
		"/>
	<path d="M311.2,145c4.7,0.1,9.3,4.3,9.5,9.1c0.1,2.1-0.8,4.8-3.1,5.2c-1.1,0.2-2.3-0.3-3.1-1.1c-0.9-0.9-1.3-2.1-1.2-3.4
		c0.2-3.2,3.2-5.2,6.2-5.7c0.5-0.1,0.3-0.8-0.2-0.7c-2.9,0.5-5.8,2.3-6.5,5.4c-0.3,1.3-0.2,2.9,0.6,4c0.7,1.1,1.9,1.9,3.2,2.1
		c1.2,0.2,2.5-0.2,3.4-1.1c0.9-0.9,1.4-2.2,1.5-3.4c0.3-2.6-0.7-5.3-2.4-7.3c-1.9-2.3-4.8-3.8-7.8-3.9
		C310.8,144.2,310.8,145,311.2,145L311.2,145z"/>
	<path d="M299.4,163.2c-0.4-1.4,0.4-2.9,1.6-3.4c1.3-0.6,2.7,0.2,3.4,1.4c0.4,0.7,0.4,1.5,0.1,2.2c-0.2,0.4,0.5,0.6,0.7,0.2
		c0.6-1.6-0.2-3.5-1.7-4.3c-1.6-0.9-3.5-0.2-4.4,1.4c-0.5,0.8-0.7,1.9-0.4,2.8C298.8,163.8,299.5,163.6,299.4,163.2z"/>
	<path d="M292.2,171c3.8,2.6,8.4,3.7,13,3.2c1.1-0.1,2.2-0.4,3.3-0.7c1.1-0.3,2.2-0.7,3-1.4c0.8-0.6,1.2-1.6,1.1-2.6
		c-0.1-1-0.9-1.7-1.8-1.8c-1-0.1-2.1,0.7-2.5,1.6c-0.6,1.3-0.3,2.8,0.1,4.1c0.1,0.5,0.8,0.3,0.7-0.2c-0.3-1.1-0.6-2.2-0.2-3.3
		c0.2-0.8,0.9-1.4,1.7-1.5c0.8-0.1,1.3,0.7,1.3,1.4c0,0.9-0.7,1.6-1.5,2.1c-0.9,0.5-1.8,0.8-2.7,1c-1,0.3-2,0.4-3,0.5
		c-2,0.2-4,0.1-6-0.4c-2.2-0.5-4.3-1.4-6.2-2.7C292.2,170.1,291.9,170.7,292.2,171L292.2,171z"/>
	<path d="M310.3,130.4c-0.3,3.4,1.2,6.9,3.9,9.1c2.7,2.2,6.4,2.9,9.7,1.9c1.9-0.6,3.5-1.6,4.8-3c0.3-0.3-0.2-0.9-0.5-0.5
		c-2.1,2.4-5.5,3.6-8.7,3.2c-3.2-0.4-6-2.5-7.4-5.4c-0.8-1.6-1.2-3.5-1-5.3C311.1,129.9,310.3,129.9,310.3,130.4L310.3,130.4z"/>
	<path d="M298.1,130.6c-0.5,3.2,0.7,6.4,3.1,8.4c2.5,2,5.9,2.4,8.8,1.2c1.6-0.7,3.1-1.8,4-3.3c0.3-0.4-0.4-0.8-0.6-0.4
		c-1.6,2.4-4.5,3.7-7.3,3.6c-3-0.2-5.4-2.1-6.7-4.7c-0.7-1.5-0.9-3.1-0.6-4.7C298.8,130.3,298.1,130.1,298.1,130.6L298.1,130.6z"/>
	<path d="M287,131.3c-0.4,2.9,1,5.9,3.3,7.7s5.4,2.1,8.1,1c1.5-0.6,2.8-1.7,3.7-3c0.3-0.4-0.4-0.8-0.6-0.4c-1.5,2.2-4.2,3.4-6.8,3.3
		c-2.7-0.1-5-1.8-6.2-4.2c-0.7-1.3-1-2.9-0.8-4.4C287.8,130.9,287.1,130.9,287,131.3L287,131.3z"/>
	<path d="M275.4,132.2c0.8,2.4,2.4,4.4,4.7,5.5c2.3,1.2,5,1.3,7.4,0.4c1.4-0.5,2.6-1.3,3.6-2.4c0.3-0.3-0.2-0.9-0.5-0.5
		c-1.6,1.8-4,2.8-6.4,2.8c-3.7,0-7-2.5-8.1-6C276,131.6,275.2,131.8,275.4,132.2L275.4,132.2z"/>
	<text transform="matrix(0.5493 0 0 1 340.5361 163.166)" class="st4 st2 st3">ABC Shop</text>
</g>
</svg>
