<?xml version="1.0" encoding="utf-8"?>
<!-- Generator: Adobe Illustrator 23.0.6, SVG Export Plug-In . SVG Version: 6.00 Build 0)  -->
<svg version="1.1" id="レイヤー_1" xmlns="http://www.w3.org/2000/svg" xmlns:xlink="http://www.w3.org/1999/xlink" x="0px"
	 y="0px" viewBox="0 0 719.7 274" style="enable-background:new 0 0 719.7 274;" xml:space="preserve">
<style type="text/css">
	.st0{fill:#FFEAB9;}
	.st1{fill:#FFCC99;}
	.st2{font-family:'Arial-BoldMT';}
	.st3{font-size:117.9838px;}
	.st4{fill:#FFEAA2;}
</style>
<title>logo</title>
<g>
	<ellipse class="st0" cx="188.9" cy="138.8" rx="117.3" ry="113.8"/>
	<text transform="matrix(0.5661 0 0 1 325.4561 181.2129)" class="st1 st2 st3">ABC Shop</text>
	<path d="M100.6,119.3c9.5-4.1,20.5-3.8,30,0.7c8.8,4.5,15.5,12.3,18,21.9c2.5,9.3,1.4,21.9-8.1,27.1c-4.2,2.4-9.5,1.7-13.4-1.4
		c-3.5-3.1-5.7-7.2-5.3-12c0-5.8,3.5-11.3,7.4-15.4c4.6-4.5,10.2-7.9,15.5-11c0.7-0.3,0.7-1,0.4-1.7c-0.4-0.7-1.1-0.7-1.8-0.3
		c-10.2,5.8-21.5,13-24,25.4c-1.1,5.1,0,10.6,3.5,14.7c3.2,4.1,8.5,6.2,13.4,5.5c5.7-0.7,10.6-4.8,13.1-9.6c2.5-5.1,3.5-11,2.5-16.5
		c-2.1-19.9-20.5-34.6-41-32.6c-2.8,0.3-5.3,0.7-7.8,1.7c-1.4,0.3-2.5,1-3.9,1.4C97.7,117.9,99.1,120,100.6,119.3L100.6,119.3z"/>
	<path d="M224.2,115.5c16.6,0.3,32.9,14.7,33.6,31.2c0.4,7.2-2.8,16.5-11,17.8c-3.9,0.7-8.1-1-11-3.8c-3.2-3.1-4.6-7.2-4.2-11.7
		c0.7-11,11.3-17.8,21.9-19.5c1.8-0.3,1.1-2.7-0.7-2.4c-10.2,1.7-20.5,7.9-23,18.5c-1.1,4.5-0.7,9.9,2.1,13.7
		c2.5,3.8,6.7,6.5,11.3,7.2c4.2,0.7,8.8-0.7,12-3.8c3.2-3.1,4.9-7.5,5.3-11.7c1.1-8.9-2.5-18.2-8.5-25c-6.7-7.9-17-13-27.6-13.4
		C222.8,112.8,222.8,115.5,224.2,115.5L224.2,115.5z"/>
	<path d="M182.5,177.9c-1.4-4.8,1.4-9.9,5.7-11.7c4.6-2.1,9.5,0.7,12,4.8c1.4,2.4,1.4,5.1,0.4,7.5c-0.7,1.4,1.8,2.1,2.5,0.7
		c2.1-5.5-0.7-12-6-14.7c-5.7-3.1-12.4-0.7-15.5,4.8c-1.8,2.7-2.5,6.5-1.4,9.6C180.4,179.9,182.9,179.3,182.5,177.9z"/>
	<path d="M157.1,204.6c13.4,8.9,29.7,12.7,45.9,11c3.9-0.3,7.8-1.4,11.7-2.4c3.9-1,7.8-2.4,10.6-4.8c2.8-2.1,4.2-5.5,3.9-8.9
		c-0.4-3.4-3.2-5.8-6.4-6.2c-3.5-0.3-7.4,2.4-8.8,5.5c-2.1,4.5-1.1,9.6,0.4,14.1c0.4,1.7,2.8,1,2.5-0.7c-1.1-3.8-2.1-7.5-0.7-11.3
		c0.7-2.7,3.2-4.8,6-5.1c2.8-0.3,4.6,2.4,4.6,4.8c0,3.1-2.5,5.5-5.3,7.2c-3.2,1.7-6.4,2.7-9.5,3.4c-3.5,1-7.1,1.4-10.6,1.7
		c-7.1,0.7-14.1,0.3-21.2-1.4c-7.8-1.7-15.2-4.8-21.9-9.3C157.1,201.5,156,203.6,157.1,204.6L157.1,204.6z"/>
	<path d="M221,65.5c-1.1,11.7,4.2,23.7,13.8,31.2c9.5,7.5,22.6,9.9,34.3,6.5c6.7-2.1,12.4-5.5,17-10.3c1.1-1-0.7-3.1-1.8-1.7
		c-7.4,8.2-19.4,12.3-30.7,11c-11.3-1.4-21.2-8.6-26.1-18.5c-2.8-5.5-4.2-12-3.5-18.2C223.8,63.7,221,63.7,221,65.5L221,65.5z"/>
	<path d="M177.9,66.1c-1.8,11,2.5,21.9,11,28.8c8.8,6.9,20.8,8.2,31.1,4.1c5.7-2.4,11-6.2,14.1-11.3c1.1-1.4-1.4-2.7-2.1-1.4
		c-5.7,8.2-15.9,12.7-25.8,12.3c-10.6-0.7-19.1-7.2-23.7-16.1c-2.5-5.1-3.2-10.6-2.1-16.1C180.4,65.1,177.9,64.4,177.9,66.1
		L177.9,66.1z"/>
	<path d="M138.7,68.5c-1.4,9.9,3.5,20.2,11.7,26.4s19.1,7.2,28.6,3.4c5.3-2.1,9.9-5.8,13.1-10.3c1.1-1.4-1.4-2.7-2.1-1.4
		c-5.3,7.5-14.8,11.7-24,11.3c-9.5-0.3-17.7-6.2-21.9-14.4c-2.5-4.5-3.5-9.9-2.8-15.1C141.5,67.2,139.1,67.2,138.7,68.5L138.7,68.5z
		"/>
	<path d="M97.7,71.6c2.8,8.2,8.5,15.1,16.6,18.9c8.1,4.1,17.7,4.5,26.1,1.4c4.9-1.7,9.2-4.5,12.7-8.2c1.1-1-0.7-3.1-1.8-1.7
		c-5.7,6.2-14.1,9.6-22.6,9.6c-13.1,0-24.7-8.6-28.6-20.6C99.8,69.6,97,70.3,97.7,71.6L97.7,71.6z"/>
	<text transform="matrix(0.5661 0 0 1 327.8252 177.7754)" class="st4 st2 st3">ABC Shop</text>
</g>
</svg>
